<?xml version="1.0" encoding="utf-8"?>
<!-- Generator: Adobe Illustrator 26.0.0, SVG Export Plug-In . SVG Version: 6.00 Build 0)  -->
<svg version="1.1" id="Capa_1" heigh="300" width="300" xmlns="http://www.w3.org/2000/svg" xmlns:xlink="http://www.w3.org/1999/xlink" x="0px" y="0px"
	 viewBox="0 0 369.9 300" style="enable-background:new 0 0 369.9 300;" xml:space="preserve">
<style type="text/css">
	.st0{fill:#7A7A7A;}
	.st1{fill:#004777;}
	.st2{fill:#FF9D00;}
	.st3{fill:#FFFFFF;}
	.st4{fill:#027DA3;}
	.st5{fill:#E8E8E8;}
</style>
<g>
	<g>
		<path class="st0" d="M33.37,282.35c0-0.79,0.62-1.41,1.41-1.41h0.29c0.68,0,1.08,0.33,1.47,0.82l5.44,7.15v-6.62
			c0-0.77,0.62-1.39,1.39-1.39c0.77,0,1.39,0.62,1.39,1.39v10.21c0,0.79-0.62,1.41-1.41,1.41h-0.09c-0.68,0-1.08-0.33-1.47-0.82
			l-5.65-7.41v6.87c0,0.77-0.62,1.39-1.39,1.39s-1.39-0.62-1.39-1.39V282.35z"/>
		<path class="st0" d="M49.54,287.46v-0.04c0-3.65,2.88-6.64,6.84-6.64c3.96,0,6.8,2.95,6.8,6.6v0.04c0,3.65-2.88,6.64-6.84,6.64
			C52.38,294.06,49.54,291.11,49.54,287.46z M60.23,287.46v-0.04c0-2.2-1.61-4.03-3.89-4.03c-2.27,0-3.85,1.8-3.85,4v0.04
			c0,2.2,1.61,4.03,3.89,4.03C58.65,291.46,60.23,289.66,60.23,287.46z"/>
		<path class="st0" d="M75.7,282.35c0-0.79,0.62-1.41,1.41-1.41h0.29c0.68,0,1.08,0.33,1.47,0.82l5.44,7.15v-6.62
			c0-0.77,0.62-1.39,1.39-1.39c0.77,0,1.39,0.62,1.39,1.39v10.21c0,0.79-0.62,1.41-1.41,1.41H85.6c-0.68,0-1.08-0.33-1.47-0.82
			l-5.65-7.41v6.87c0,0.77-0.62,1.39-1.39,1.39c-0.77,0-1.39-0.62-1.39-1.39V282.35z"/>
		<path class="st0" d="M91.87,287.46v-0.04c0-3.65,2.88-6.64,6.84-6.64c3.96,0,6.8,2.95,6.8,6.6v0.04c0,3.65-2.88,6.64-6.84,6.64
			C94.72,294.06,91.87,291.11,91.87,287.46z M102.56,287.46v-0.04c0-2.2-1.61-4.03-3.89-4.03c-2.27,0-3.85,1.8-3.85,4v0.04
			c0,2.2,1.61,4.03,3.89,4.03C100.99,291.46,102.56,289.66,102.56,287.46z"/>
		<path class="st0" d="M109.93,292.49c-0.31-0.22-0.53-0.62-0.53-1.06c0-0.73,0.59-1.3,1.32-1.3c0.37,0,0.62,0.13,0.81,0.26
			c0.97,0.72,2.03,1.16,3.28,1.16c1.16,0,1.85-0.46,1.85-1.21v-0.04c0-0.71-0.44-1.08-2.59-1.63c-2.58-0.66-4.25-1.37-4.25-3.92
			v-0.04c0-2.33,1.87-3.87,4.49-3.87c1.56,0,2.91,0.4,4.07,1.14c0.31,0.18,0.62,0.57,0.62,1.12c0,0.73-0.59,1.3-1.32,1.3
			c-0.28,0-0.5-0.07-0.72-0.2c-0.94-0.55-1.81-0.86-2.7-0.86c-1.08,0-1.65,0.49-1.65,1.12v0.04c0,0.84,0.55,1.12,2.77,1.69
			c2.6,0.68,4.07,1.61,4.07,3.85v0.04c0,2.55-1.94,3.98-4.71,3.98C113.07,294.03,111.36,293.51,109.93,292.49z"/>
		<path class="st0" d="M131.68,292.49c-0.31-0.22-0.53-0.62-0.53-1.06c0-0.73,0.59-1.3,1.32-1.3c0.37,0,0.62,0.13,0.81,0.26
			c0.97,0.72,2.03,1.16,3.28,1.16c1.16,0,1.85-0.46,1.85-1.21v-0.04c0-0.71-0.44-1.08-2.59-1.63c-2.58-0.66-4.25-1.37-4.25-3.92
			v-0.04c0-2.33,1.87-3.87,4.49-3.87c1.56,0,2.91,0.4,4.07,1.14c0.31,0.18,0.62,0.57,0.62,1.12c0,0.73-0.59,1.3-1.32,1.3
			c-0.28,0-0.5-0.07-0.72-0.2c-0.94-0.55-1.81-0.86-2.7-0.86c-1.08,0-1.65,0.49-1.65,1.12v0.04c0,0.84,0.55,1.12,2.77,1.69
			c2.6,0.68,4.07,1.61,4.07,3.85v0.04c0,2.55-1.94,3.98-4.71,3.98C134.81,294.03,133.11,293.51,131.68,292.49z"/>
		<path class="st0" d="M145.72,288.35v-6.03c0-0.79,0.62-1.41,1.41-1.41c0.79,0,1.41,0.62,1.41,1.41v5.96
			c0,2.09,1.04,3.17,2.77,3.17s2.77-1.05,2.77-3.08v-6.05c0-0.79,0.62-1.41,1.41-1.41c0.79,0,1.41,0.62,1.41,1.41v5.94
			c0,3.89-2.18,5.79-5.63,5.79C147.83,294.05,145.72,292.12,145.72,288.35z"/>
		<path class="st0" d="M162.04,282.42c0-0.79,0.62-1.41,1.41-1.41h3.83c3.06,0,4.91,1.81,4.91,4.44v0.04c0,2.97-2.31,4.51-5.19,4.51
			h-2.14v2.55c0,0.79-0.62,1.41-1.41,1.41c-0.79,0-1.41-0.62-1.41-1.41V282.42z M167.1,287.48c1.41,0,2.24-0.84,2.24-1.94v-0.04
			c0-1.26-0.88-1.94-2.29-1.94h-2.18v3.92H167.1z"/>
		<path class="st0" d="M176.54,292.43v-10.01c0-0.79,0.62-1.41,1.41-1.41h7.11c0.7,0,1.26,0.57,1.26,1.26c0,0.7-0.57,1.25-1.26,1.25
			h-5.72v2.6h4.89c0.7,0,1.27,0.57,1.27,1.26c0,0.7-0.57,1.25-1.27,1.25h-4.89v2.7h5.81c0.7,0,1.26,0.57,1.26,1.26
			c0,0.7-0.57,1.25-1.26,1.25h-7.2C177.16,293.84,176.54,293.22,176.54,292.43z"/>
		<path class="st0" d="M191.08,282.42c0-0.79,0.62-1.41,1.41-1.41h4.46c1.63,0,2.9,0.46,3.74,1.3c0.72,0.71,1.1,1.72,1.1,2.93v0.04
			c0,2.02-1.01,3.26-2.57,3.91l1.96,2.38c0.27,0.35,0.46,0.64,0.46,1.08c0,0.79-0.66,1.3-1.34,1.3c-0.64,0-1.06-0.31-1.39-0.73
			l-2.75-3.48h-2.25v2.81c0,0.79-0.62,1.41-1.41,1.41c-0.79,0-1.41-0.62-1.41-1.41V282.42z M196.76,287.24
			c1.37,0,2.16-0.73,2.16-1.81v-0.04c0-1.21-0.84-1.83-2.22-1.83h-2.81v3.69H196.76z"/>
		<path class="st0" d="M205.87,292.03l4.47-10.1c0.31-0.7,0.88-1.12,1.65-1.12h0.16c0.77,0,1.32,0.42,1.63,1.12l4.47,10.1
			c0.09,0.2,0.15,0.38,0.15,0.57c0,0.75-0.59,1.36-1.34,1.36c-0.66,0-1.1-0.38-1.36-0.97l-0.86-2.02h-5.65l-0.9,2.11
			c-0.24,0.55-0.71,0.88-1.3,0.88c-0.73,0-1.3-0.59-1.3-1.32C205.71,292.43,205.78,292.23,205.87,292.03z M213.81,288.47l-1.78-4.23
			l-1.78,4.23H213.81z"/>
		<path class="st0" d="M230.64,282.35c0-0.79,0.62-1.41,1.41-1.41h0.29c0.68,0,1.08,0.33,1.47,0.82l5.44,7.15v-6.62
			c0-0.77,0.62-1.39,1.39-1.39c0.77,0,1.39,0.62,1.39,1.39v10.21c0,0.79-0.62,1.41-1.41,1.41h-0.09c-0.68,0-1.08-0.33-1.47-0.82
			l-5.65-7.41v6.87c0,0.77-0.62,1.39-1.39,1.39c-0.77,0-1.39-0.62-1.39-1.39V282.35z"/>
		<path class="st0" d="M247.51,282.31c0-0.79,0.62-1.41,1.41-1.41c0.79,0,1.41,0.62,1.41,1.41v10.23c0,0.79-0.62,1.41-1.41,1.41
			c-0.79,0-1.41-0.62-1.41-1.41V282.31z"/>
		<path class="st0" d="M255.79,282.35c0-0.79,0.62-1.41,1.41-1.41h0.29c0.68,0,1.08,0.33,1.47,0.82l5.44,7.15v-6.62
			c0-0.77,0.62-1.39,1.39-1.39s1.39,0.62,1.39,1.39v10.21c0,0.79-0.62,1.41-1.41,1.41h-0.09c-0.68,0-1.08-0.33-1.47-0.82l-5.65-7.41
			v6.87c0,0.77-0.62,1.39-1.39,1.39c-0.77,0-1.39-0.62-1.39-1.39V282.35z"/>
		<path class="st0" d="M271.96,287.46v-0.04c0-3.65,2.84-6.64,6.73-6.64c1.94,0,3.23,0.44,4.38,1.25c0.27,0.2,0.59,0.59,0.59,1.14
			c0,0.77-0.62,1.39-1.39,1.39c-0.4,0-0.66-0.15-0.86-0.29c-0.77-0.55-1.59-0.88-2.8-0.88c-2.05,0-3.69,1.81-3.69,4v0.04
			c0,2.35,1.61,4.07,3.89,4.07c1.03,0,1.94-0.26,2.66-0.77v-1.83h-1.91c-0.68,0-1.23-0.53-1.23-1.21c0-0.68,0.55-1.23,1.23-1.23
			h3.23c0.79,0,1.41,0.62,1.41,1.41v3.12c0,0.82-0.31,1.39-0.99,1.8c-1.05,0.64-2.57,1.28-4.49,1.28
			C274.71,294.06,271.96,291.26,271.96,287.46z"/>
		<path class="st0" d="M288.96,288.35v-6.03c0-0.79,0.62-1.41,1.41-1.41c0.79,0,1.41,0.62,1.41,1.41v5.96
			c0,2.09,1.04,3.17,2.77,3.17c1.72,0,2.77-1.05,2.77-3.08v-6.05c0-0.79,0.62-1.41,1.41-1.41c0.79,0,1.41,0.62,1.41,1.41v5.94
			c0,3.89-2.18,5.79-5.63,5.79C291.07,294.05,288.96,292.12,288.96,288.35z"/>
		<path class="st0" d="M305.28,282.35c0-0.79,0.62-1.41,1.41-1.41h0.29c0.68,0,1.08,0.33,1.47,0.82l5.44,7.15v-6.62
			c0-0.77,0.62-1.39,1.39-1.39s1.39,0.62,1.39,1.39v10.21c0,0.79-0.62,1.41-1.41,1.41h-0.09c-0.68,0-1.08-0.33-1.47-0.82l-5.65-7.41
			v6.87c0,0.77-0.62,1.39-1.39,1.39c-0.77,0-1.39-0.62-1.39-1.39V282.35z"/>
		<path class="st0" d="M321.3,292.03l4.47-10.1c0.31-0.7,0.88-1.12,1.65-1.12h0.16c0.77,0,1.32,0.42,1.63,1.12l4.47,10.1
			c0.09,0.2,0.15,0.38,0.15,0.57c0,0.75-0.59,1.36-1.34,1.36c-0.66,0-1.1-0.38-1.36-0.97l-0.86-2.02h-5.65l-0.9,2.11
			c-0.24,0.55-0.71,0.88-1.3,0.88c-0.73,0-1.3-0.59-1.3-1.32C321.13,292.43,321.21,292.23,321.3,292.03z M329.24,288.47l-1.78-4.23
			l-1.78,4.23H329.24z"/>
	</g>
	<g>
		<g>
			<g>
				<g>
					<path class="st1" d="M6.7,257.51v-53.76h8.77l23.62,26.58l23.62-26.58h8.77v53.76h-6.4v-46.89l-25.99,29.2l-25.99-29.2v46.89
						H6.7z"/>
				</g>
				<g>
					<polygon class="st1" points="75.41,261.44 61.15,261.44 61.15,220.95 39.09,245.73 17.04,220.95 17.04,261.44 2.77,261.44 
						2.77,199.82 17.24,199.82 39.09,224.41 60.95,199.82 75.41,199.82 					"/>
				</g>
			</g>
		</g>
		<g>
			<g>
				<g>
					<path class="st1" d="M88.07,257.51v-53.76h51.9v6.05h-45.5v17.77h36.57v6.12H94.47v17.77h45.5v6.05H88.07z"/>
				</g>
				<g>
					<polygon class="st1" points="143.9,261.44 84.14,261.44 84.14,199.82 143.9,199.82 143.9,213.73 98.4,213.73 98.4,223.64 
						134.97,223.64 134.97,237.62 98.4,237.62 98.4,247.53 143.9,247.53 					"/>
				</g>
			</g>
		</g>
		<g>
			<g>
				<g>
					<path class="st1" d="M156.4,257.51v-20.16c0-1.69,0.42-3.22,1.26-4.59c0.84-1.37,1.99-2.45,3.44-3.25
						c1.45-0.8,3.07-1.19,4.86-1.19h38.31c0.84,0,1.57-0.29,2.17-0.86c0.6-0.57,0.91-1.26,0.91-2.05v-12.62
						c0-0.8-0.3-1.48-0.91-2.05c-0.61-0.57-1.33-0.86-2.17-0.86h-38.31c-0.84,0-1.57,0.29-2.17,0.86c-0.61,0.57-0.91,1.26-0.91,2.05
						v2.09h-6.48v-2.09c0-1.69,0.42-3.22,1.26-4.59c0.84-1.37,1.99-2.46,3.44-3.29c1.45-0.82,3.07-1.23,4.86-1.23h38.31
						c1.74,0,3.33,0.41,4.78,1.23c1.45,0.82,2.61,1.92,3.48,3.29c0.87,1.37,1.3,2.9,1.3,4.59v12.62c0,1.64-0.43,3.15-1.3,4.52
						c-0.87,1.37-2.03,2.46-3.48,3.29c-1.45,0.82-3.04,1.23-4.78,1.23h-38.31c-0.84,0-1.57,0.29-2.17,0.86
						c-0.61,0.57-0.91,1.26-0.91,2.05v11.13c0,0.8,0.3,1.48,0.91,2.05c0.6,0.57,1.33,0.86,2.17,0.86h47.87v6.12H156.4z"/>
				</g>
				<g>
					<path class="st1" d="M217.76,261.44h-65.29v-24.09c0-2.42,0.62-4.66,1.85-6.65c1.2-1.95,2.84-3.51,4.89-4.63
						c2.03-1.12,4.3-1.68,6.75-1.68h37.46V213.8h-36.61v5h-14.34v-6.02c0-2.42,0.62-4.66,1.85-6.65c1.19-1.93,2.82-3.5,4.85-4.65
						c2.04-1.16,4.33-1.74,6.8-1.74h38.31c2.42,0,4.68,0.59,6.72,1.74c2.01,1.14,3.64,2.69,4.86,4.6c1.27,2,1.92,4.26,1.92,6.7
						v12.62c0,2.39-0.64,4.62-1.92,6.63c-1.21,1.91-2.85,3.46-4.86,4.6c-2.04,1.16-4.3,1.74-6.72,1.74h-37.46v9.08h50.95V261.44z
						 M160.33,253.58h0.96c-0.07-0.06-0.14-0.13-0.21-0.19c-0.28-0.26-0.53-0.54-0.75-0.82V253.58z"/>
				</g>
			</g>
		</g>
		<g>
			<g>
				<g>
					<path class="st1" d="M238.86,257.51c-1.74,0-3.33-0.4-4.78-1.19c-1.45-0.8-2.59-1.88-3.44-3.25c-0.84-1.37-1.26-2.88-1.26-4.52
						v-2.09h6.4v2.09c0,0.8,0.3,1.48,0.91,2.05c0.6,0.57,1.33,0.86,2.17,0.86h37.92c0.84,0,1.57-0.29,2.17-0.86
						c0.6-0.57,0.91-1.26,0.91-2.05v-12.02c0-0.8-0.3-1.47-0.91-2.02c-0.61-0.55-1.33-0.82-2.17-0.82h-37.92
						c-1.74,0-3.33-0.41-4.78-1.23c-1.45-0.82-2.59-1.9-3.44-3.25c-0.84-1.34-1.26-2.84-1.26-4.48v-12.02
						c0-1.64,0.42-3.15,1.26-4.52c0.84-1.37,1.99-2.45,3.44-3.25c1.45-0.8,3.04-1.19,4.78-1.19h37.92c1.74,0,3.33,0.4,4.78,1.19
						c1.45,0.8,2.59,1.88,3.44,3.25c0.84,1.37,1.26,2.88,1.26,4.52v2.09h-6.4v-2.09c0-0.8-0.3-1.48-0.91-2.05
						c-0.61-0.57-1.33-0.86-2.17-0.86h-37.92c-0.84,0-1.57,0.29-2.17,0.86c-0.61,0.57-0.91,1.26-0.91,2.05v12.02
						c0,0.8,0.3,1.47,0.91,2.02c0.6,0.55,1.33,0.82,2.17,0.82h37.92c1.74,0,3.33,0.41,4.78,1.23c1.45,0.82,2.59,1.9,3.44,3.25
						c0.84,1.34,1.26,2.84,1.26,4.48v12.02c0,1.64-0.42,3.15-1.26,4.52c-0.84,1.37-1.99,2.45-3.44,3.25
						c-1.45,0.8-3.04,1.19-4.78,1.19H238.86z"/>
				</g>
				<g>
					<path class="st1" d="M276.78,261.44h-37.92c-2.4,0-4.65-0.57-6.68-1.68c-2.05-1.12-3.69-2.68-4.89-4.63
						c-1.22-1.99-1.85-4.2-1.85-6.58v-6.02h14.26v5h36.21v-9.91h-37.06c-2.42,0-4.68-0.59-6.72-1.74c-2.02-1.14-3.64-2.68-4.83-4.58
						c-1.24-1.97-1.86-4.18-1.86-6.57v-12.02c0-2.37,0.62-4.59,1.85-6.58c1.2-1.95,2.84-3.51,4.89-4.63
						c2.03-1.12,4.28-1.68,6.68-1.68h37.92c2.4,0,4.64,0.56,6.67,1.68c2.05,1.13,3.7,2.69,4.89,4.64c1.23,1.99,1.85,4.21,1.85,6.58
						v6.02h-14.26v-5h-36.21v9.91h37.07c2.42,0,4.68,0.59,6.72,1.74c2.02,1.15,3.64,2.69,4.83,4.58c1.24,1.97,1.86,4.18,1.86,6.57
						v12.02c0,2.37-0.62,4.59-1.85,6.58c-1.2,1.95-2.84,3.51-4.89,4.63C281.43,260.88,279.18,261.44,276.78,261.44z"/>
				</g>
			</g>
		</g>
		<g>
			<g>
				<g>
					<path class="st1" d="M302.77,212.71c0-1.64,0.42-3.15,1.26-4.52c0.84-1.37,1.99-2.45,3.44-3.25c1.45-0.8,3.04-1.19,4.78-1.19
						h37.92c1.74,0,3.33,0.4,4.78,1.19c1.45,0.8,2.59,1.88,3.44,3.25c0.84,1.37,1.26,2.88,1.26,4.52v44.8h-6.4v-19.64h-44.08v19.64
						h-6.4V212.71z M353.25,231.82v-19.12c0-0.8-0.3-1.48-0.91-2.05c-0.61-0.57-1.33-0.86-2.17-0.86h-37.92
						c-0.84,0-1.57,0.29-2.17,0.86c-0.61,0.57-0.91,1.26-0.91,2.05v19.12H353.25z"/>
				</g>
				<g>
					<path class="st1" d="M363.58,261.44h-14.26V241.8H313.1v19.64h-14.26v-48.73c0-2.37,0.62-4.59,1.85-6.58
						c1.2-1.95,2.84-3.51,4.89-4.63c2.03-1.12,4.28-1.68,6.67-1.68h37.92c2.4,0,4.64,0.56,6.67,1.68c2.05,1.13,3.69,2.69,4.89,4.63
						c1.23,2,1.85,4.21,1.85,6.58V261.44z M313.1,227.89h36.21v-14.16H313.1V227.89z"/>
				</g>
			</g>
		</g>
		<g>
			<g>
				<path class="st2" d="M347.85,69.78h-19.7l9.15-43.13c2.16-10.16-4.33-18.4-14.5-18.4h-158.5c-10.16,0-20.15,8.24-22.3,18.4
					l-13.05,61.53l-10.28,48.47c-2.16,10.16,4.33,18.4,14.5,18.4h158.5h38.1c10.16,0,20.15-8.24,22.3-18.4l10.28-48.47
					C364.51,78.02,358.02,69.78,347.85,69.78z"/>
			</g>
			<g>
				<path class="st3" d="M329.77,158.11h-196.6c-5.78,0-10.8-2.27-14.13-6.38c-3.42-4.22-4.61-9.8-3.36-15.72l23.34-110
					c2.44-11.48,13.79-20.83,25.3-20.83h158.5c5.78,0,10.8,2.27,14.13,6.38c3.42,4.22,4.61,9.8,3.36,15.72l-8.37,39.43h15.92
					c5.78,0,10.8,2.27,14.13,6.38c3.42,4.22,4.61,9.8,3.36,15.72l-10.28,48.47C352.63,148.77,341.28,158.11,329.77,158.11z
					 M164.31,11.31c-8.78,0-17.44,7.17-19.31,15.97l-23.34,110c-0.86,4.07-0.11,7.83,2.13,10.59c2.15,2.65,5.48,4.11,9.37,4.11
					h196.6c8.78,0,17.44-7.17,19.31-15.97l10.28-48.47c0.86-4.07,0.11-7.83-2.13-10.59c-2.15-2.65-5.48-4.11-9.37-4.11h-19.7
					c-0.92,0-1.8-0.42-2.38-1.13c-0.58-0.72-0.81-1.66-0.62-2.56l9.15-43.13c0.86-4.07,0.11-7.83-2.13-10.59
					c-2.15-2.65-5.48-4.11-9.37-4.11H164.31z"/>
			</g>
		</g>
		<g>
			<g>
				<g>
					<g>
						<path class="st4" d="M105.58,136.07H11.12c-2.01,0-3.05-2.83-2.31-6.31c0.74-3.49,2.97-6.31,4.99-6.31h94.46
							c2.01,0,3.05,2.83,2.31,6.31C109.83,133.24,107.59,136.07,105.58,136.07z"/>
					</g>
				</g>
			</g>
		</g>
		<g>
			<g>
				<g>
					<g>
						<path class="st4" d="M114.79,92.67H41.96c-2.01,0-3.05-2.83-2.31-6.31c0.74-3.49,2.97-6.31,4.99-6.31h72.83
							c2.01,0,3.05,2.83,2.31,6.31C119.03,89.84,116.8,92.67,114.79,92.67z"/>
					</g>
				</g>
			</g>
		</g>
		<g>
			<g>
				<g>
					<g>
						<path class="st4" d="M124,49.26H76.77c-2.01,0-3.05-2.83-2.31-6.31c0.74-3.49,2.97-6.31,4.99-6.31h47.23
							c2.01,0,3.05,2.83,2.31,6.31C128.24,46.44,126.01,49.26,124,49.26z"/>
					</g>
				</g>
			</g>
		</g>
		<g>
			<g>
				
					<ellipse transform="matrix(0.7435 -0.6688 0.6688 0.7435 -51.5474 158.457)" class="st1" cx="180.77" cy="146.42" rx="36.94" ry="29.89"/>
			</g>
			<g>
				<path class="st3" d="M173.72,182.71c-9.68,0-18.06-3.77-23.6-10.61c-5.7-7.04-7.68-16.38-5.57-26.32
					c4.17-19.66,23.58-35.65,43.27-35.65c9.68,0,18.06,3.77,23.6,10.61c5.7,7.04,7.68,16.38,5.57,26.32l0,0
					C212.82,166.71,193.41,182.71,173.72,182.71z M187.82,116.25c-16.95,0-33.68,13.82-37.28,30.8c-1.72,8.09-0.18,15.62,4.34,21.19
					c4.36,5.38,11.05,8.34,18.84,8.34c16.95,0,33.68-13.82,37.28-30.8l0,0c1.72-8.09,0.18-15.62-4.34-21.19
					C202.31,119.22,195.62,116.25,187.82,116.25z"/>
			</g>
		</g>
		<g>
			<g>
				
					<ellipse transform="matrix(0.7435 -0.6688 0.6688 0.7435 -51.5474 158.4569)" class="st4" cx="180.77" cy="146.42" rx="22.22" ry="17.98"/>
			</g>
			<g>
				<path class="st3" d="M176.53,168.25c-5.82,0-10.86-2.27-14.2-6.38c-3.43-4.23-4.62-9.85-3.35-15.83
					c2.51-11.82,14.18-21.44,26.03-21.44c5.82,0,10.86,2.27,14.2,6.38c3.43,4.23,4.62,9.85,3.35,15.83l0,0
					C200.05,158.63,188.37,168.25,176.53,168.25z M185.01,128.28c-10.2,0-20.26,8.31-22.42,18.52c-1.03,4.87-0.11,9.39,2.61,12.75
					c2.62,3.23,6.65,5.02,11.33,5.02c10.2,0,20.26-8.31,22.42-18.52l0,0c1.03-4.87,0.11-9.39-2.61-12.75
					C193.72,130.06,189.7,128.28,185.01,128.28z"/>
			</g>
		</g>
		<g>
			<g>
				
					<ellipse transform="matrix(0.7435 -0.6688 0.6688 0.7435 -25.9607 225.1603)" class="st1" cx="280.51" cy="146.42" rx="36.94" ry="29.89"/>
			</g>
			<g>
				<path class="st3" d="M273.46,182.71c-9.68,0-18.06-3.77-23.6-10.61c-5.7-7.04-7.68-16.38-5.57-26.32
					c4.17-19.66,23.58-35.65,43.27-35.65c9.68,0,18.06,3.77,23.6,10.61c5.7,7.04,7.68,16.38,5.57,26.32l0,0
					C312.56,166.71,293.15,182.71,273.46,182.71z M287.56,116.25c-16.95,0-33.68,13.82-37.28,30.8c-1.72,8.09-0.18,15.62,4.34,21.19
					c4.36,5.38,11.05,8.34,18.84,8.34c16.95,0,33.68-13.82,37.28-30.8l0,0c1.72-8.09,0.18-15.62-4.34-21.19
					C302.05,119.22,295.36,116.25,287.56,116.25z"/>
			</g>
		</g>
		<g>
			<g>
				
					<ellipse transform="matrix(0.7435 -0.6688 0.6688 0.7435 -25.9608 225.1602)" class="st4" cx="280.51" cy="146.42" rx="22.22" ry="17.98"/>
			</g>
			<g>
				<path class="st3" d="M276.27,168.25c-5.82,0-10.86-2.27-14.2-6.38c-3.43-4.23-4.62-9.85-3.35-15.83
					c2.51-11.82,14.18-21.44,26.03-21.44c5.82,0,10.86,2.27,14.2,6.38c3.43,4.23,4.62,9.85,3.35,15.83l0,0
					C299.79,158.63,288.11,168.25,276.27,168.25z M284.75,128.28c-10.2,0-20.26,8.31-22.42,18.52c-1.03,4.87-0.11,9.39,2.61,12.75
					c2.62,3.23,6.65,5.02,11.33,5.02c10.2,0,20.26-8.31,22.42-18.52l0,0c1.03-4.87,0.11-9.39-2.61-12.75
					C293.46,130.06,289.44,128.28,284.75,128.28z"/>
			</g>
		</g>
		<g>
			<g>
				<path class="st5" d="M328.15,69.78h-46.02c-3.18,0-5.23-2.6-4.55-5.78l5.9-27.83c0.67-3.18,3.83-5.78,7.01-5.78h46.02
					L328.15,69.78z"/>
			</g>
			<g>
				<path class="st3" d="M328.15,72.84h-46.02c-2.42,0-4.63-1.02-6.06-2.79c-1.46-1.8-2-4.24-1.49-6.69l5.9-27.83
					c0.98-4.6,5.37-8.21,10-8.21h46.02c0.92,0,1.8,0.42,2.38,1.13c0.58,0.72,0.81,1.66,0.62,2.56l-8.36,39.39
					C330.85,71.83,329.6,72.84,328.15,72.84z M290.49,33.45c-1.73,0-3.64,1.6-4.01,3.35l-5.9,27.83c-0.14,0.64-0.05,1.2,0.25,1.56
					c0.35,0.43,0.9,0.52,1.31,0.52h43.54l7.06-33.26H290.49z"/>
			</g>
		</g>
	</g>
</g>
</svg>
